<?xml version="1.0" encoding="UTF-8"?>
<svg width="1500px" height="518px" viewBox="0 0 1500 518" version="1.1" xmlns="http://www.w3.org/2000/svg" xmlns:xlink="http://www.w3.org/1999/xlink">
    <title>Artboard</title>
    <defs>
        <linearGradient x1="19.0499615%" y1="35.8940788%" x2="75.4520634%" y2="61.5933293%" id="linearGradient-1">
            <stop stop-color="#791B2C" offset="0%"></stop>
            <stop stop-color="#252F4A" offset="99.9900277%"></stop>
            <stop stop-color="#252F4A" offset="100%"></stop>
        </linearGradient>
    </defs>
    <g id="Artboard" stroke="none" stroke-width="1" fill="none" fill-rule="evenodd">
        <rect fill="#B45959" x="0" y="0" width="1500" height="518"></rect>
        <rect id="Background" fill="url(#linearGradient-1)" x="0" y="0" width="1500" height="518"></rect>
        <path d="M583.07,319 L583.07,235.36 C583.07,232.073333 583.013333,229.098333 582.9,226.435 C582.786667,223.771667 582.673333,221.476667 582.56,219.55 C582.333333,217.283333 582.106667,215.243333 581.88,213.43 L581.88,213.43 L583.24,213.43 C583.806667,216.036667 584.486667,218.643333 585.28,221.25 C585.846667,223.516667 586.583333,226.01 587.49,228.73 C588.396667,231.45 589.303333,234.113333 590.21,236.72 L590.21,236.72 L622.17,319 L641.55,319 L641.55,196.6 L626.93,196.6 L626.93,279.9 C626.93,282.846667 627.015,285.651667 627.185,288.315 C627.355,290.978333 627.553333,293.33 627.78,295.37 C628.006667,297.41 628.176667,299.025 628.29,300.215 C628.403333,301.405 628.46,302 628.46,302 L628.46,302 L627.1,302 C626.42,299.053333 625.683333,296.163333 624.89,293.33 C624.323333,290.95 623.643333,288.428333 622.85,285.765 C622.056667,283.101667 621.206667,280.75 620.3,278.71 L620.3,278.71 L587.83,196.6 L568.45,196.6 L568.45,319 L583.07,319 Z M758,319 L758,305.06 L701.05,305.06 L701.05,262.9 L752.05,262.9 L752.05,248.96 L701.05,248.96 L701.05,210.54 L758,210.54 L758,196.6 L685.75,196.6 L685.75,319 L758,319 Z M838.24,319 C844.02,319 849.233333,318.206667 853.88,316.62 C858.526667,315.033333 862.465,312.738333 865.695,309.735 C868.925,306.731667 871.39,303.105 873.09,298.855 C874.79,294.605 875.64,289.816667 875.64,284.49 C875.64,275.763333 873.458333,268.85 869.095,263.75 C864.731667,258.65 858.64,255.873333 850.82,255.42 L850.82,255.42 L850.82,254.4 C857.62,253.833333 863.088333,251.255 867.225,246.665 C871.361667,242.075 873.43,236.153333 873.43,228.9 C873.43,218.926667 870.143333,211.05 863.57,205.27 C856.996667,199.49 847.93,196.6 836.37,196.6 L836.37,196.6 L800.5,196.6 L800.5,319 L838.24,319 Z M836.2,249.64 L815.63,249.64 L815.63,210.54 L836.37,210.54 C842.83,210.54 847.93,212.268333 851.67,215.725 C855.41,219.181667 857.28,223.97 857.28,230.09 C857.28,236.21 855.381667,240.998333 851.585,244.455 C847.788333,247.911667 842.66,249.64 836.2,249.64 L836.2,249.64 Z M836.54,305.06 L815.63,305.06 L815.63,262.9 L836.54,262.9 C843.68,262.9 849.29,264.77 853.37,268.51 C857.45,272.25 859.49,277.406667 859.49,283.98 C859.49,290.553333 857.478333,295.71 853.455,299.45 C849.431667,303.19 843.793333,305.06 836.54,305.06 L836.54,305.06 Z M951.8,320.7 C963.473333,320.7 972.483333,317.555 978.83,311.265 C985.176667,304.975 988.35,296.22 988.35,285 L988.35,285 L988.35,196.6 L973.05,196.6 L973.05,285 C973.05,291.8 971.208333,297.183333 967.525,301.15 C963.841667,305.116667 958.6,307.1 951.8,307.1 C944.886667,307.1 939.616667,305.116667 935.99,301.15 C932.363333,297.183333 930.55,291.8 930.55,285 L930.55,285 L930.55,196.6 L915.25,196.6 L915.25,285 C915.25,296.106667 918.423333,304.833333 924.77,311.18 C931.116667,317.526667 940.126667,320.7 951.8,320.7 Z M1107.35,319 L1107.35,305.06 L1049.55,305.06 L1049.55,196.6 L1034.25,196.6 L1034.25,319 L1107.35,319 Z M1155.46,319 L1164.13,284.49 L1201.7,284.49 L1210.2,319 L1226.52,319 L1194.22,196.6 L1172.8,196.6 L1139.48,319 L1155.46,319 Z M1198.64,271.74 L1167.36,271.74 L1179.43,223.29 C1179.99667,220.91 1180.50667,218.728333 1180.96,216.745 C1181.41333,214.761667 1181.75333,212.976667 1181.98,211.39 C1182.32,209.69 1182.60333,208.16 1182.83,206.8 L1182.83,206.8 L1183.51,206.8 C1183.73667,208.16 1183.96333,209.69 1184.19,211.39 C1184.41667,212.976667 1184.75667,214.761667 1185.21,216.745 C1185.66333,218.728333 1186.17333,220.91 1186.74,223.29 L1186.74,223.29 L1198.64,271.74 Z" id="NEBULA" fill="#FFFFFF" fill-rule="nonzero"></path>
        <g id="Lock" transform="translate(176.000000, 119.000000)" stroke="#FFFFFF" stroke-linecap="round" stroke-linejoin="round" stroke-width="2">
            <polyline id="Path-2" points="240 225.061042 213.188191 247 148 214 156.946156 247"></polyline>
            <polygon id="Path-3" points="131 261 158.337651 247 193.447715 258.801488"></polygon>
            <line x1="240" y1="225" x2="148" y2="214" id="Path-5"></line>
            <line x1="149" y1="214" x2="72" y2="191" id="Path-6"></line>
            <line x1="148" y1="214" x2="104" y2="242" id="Path-7"></line>
            <polyline id="Path-9" points="255.360287 185 231.097303 166.665794 258.643256 108 193.863118 67 206.028673 123.177281 167 145.419916"></polyline>
            <line x1="169" y1="145" x2="231.097303" y2="166.665794" id="Path-10"></line>
            <polyline id="Path-12" points="255.360287 185 265 152.201913 265 73 258.644112 108.137716"></polyline>
            <line x1="194" y1="67" x2="167" y2="145.272691" id="Path-14"></line>
            <line x1="168" y1="146" x2="109" y2="116" id="Path-15"></line>
            <line x1="194" y1="67" x2="146.543246" y2="90.7712341" id="Path-16"></line>
            <line x1="155.848478" y1="31" x2="146" y2="90.7712341" id="Path-17"></line>
            <line x1="194" y1="67" x2="265" y2="73" id="Path-20"></line>
            <line x1="206" y1="123" x2="258" y2="108" id="Path-21"></line>
            <line x1="72" y1="191.530123" x2="146.150711" y2="184" id="Path-22"></line>
            <polygon id="Path-27" points="131 0 63 39.7875872 91.9086828 80.1128503 108.981795 116 101 43"></polygon>
            <path d="M109,116 L67,126 L109,116 Z" id="Path-38"></path>
            <line x1="0.774242233" y1="74.2676739" x2="47" y2="74" id="Path-45"></line>
            <line x1="47" y1="74" x2="108.888655" y2="116.258872" id="Path-46"></line>
            <polyline id="Path-47" points="71 190.574237 1 221.750931 1.66216871 146.669315 32 130"></polyline>
            <line x1="32" y1="130.399921" x2="70" y2="191" id="Path-48"></line>
            <line x1="1.66666667" y1="147.435076" x2="0.333333333" y2="74.3486557" id="Path-49"></line>
            <polyline id="Path-51" points="71.2115472 191 62.5097669 235 132 292 70.7321122 258.602235 45.4573772 245.629223 1 221.750931"></polyline>
            <line x1="62" y1="235" x2="2.27257034" y2="221.509853" id="Path-52"></line>
            <line x1="1.27703871" y1="220.937199" x2="31.8673287" y2="131" id="Path-53"></line>
            <line x1="31.8811423" y1="130.399921" x2="46.514543" y2="74.2421812" id="Path-54"></line>
            <line x1="131" y1="0" x2="155.848478" y2="31" id="Path-57"></line>
            <line x1="66" y1="126" x2="47" y2="74" id="Path"></line>
            <line x1="66" y1="126" x2="32" y2="130" id="Path-8"></line>
            <line x1="146" y1="91" x2="110" y2="116" id="Path-11"></line>
            <line x1="146" y1="92" x2="167" y2="146" id="Path-13"></line>
            <polygon id="Path-19" points="131 5.68434189e-14 199.338883 37.9551357 265 73"></polygon>
            <polygon id="Path-23" points="155.848478 31 205 41.1962797 193.863118 67"></polygon>
            <polyline id="Path-24" points="101 43 129.758726 51.9872881 146 91"></polyline>
            <line x1="130" y1="52" x2="155" y2="31" id="Path-25"></line>
            <line x1="132" y1="292" x2="157.879102" y2="278" id="Path-68"></line>
            <line x1="157.879102" y1="278" x2="193.447715" y2="258.801488" id="Path-69"></line>
            <line x1="0.5" y1="74.5" x2="63" y2="39.7875872" id="Path-70"></line>
            <line x1="47" y1="74" x2="63" y2="39.7875872" id="Path-71"></line>
            <polyline id="Path-73" points="146 184 104 147.153488 107.876072 116"></polyline>
            <line x1="104" y1="242" x2="62" y2="235" id="Path-74"></line>
            <polygon id="Path-75" points="104 242 130.636852 260.636418 132 292"></polygon>
            <polyline id="Path-76" points="146.383459 184 167.385366 146 203 197 255.360287 185 265 219.367065 239.176701 225"></polyline>
            <polyline id="Path-77" points="203 197.410856 149.405914 214 146.150711 184"></polyline>
            <line x1="203" y1="197" x2="146.150711" y2="184" id="Path-78"></line>
            <line x1="203" y1="197" x2="240" y2="225" id="Path-79"></line>
            <polyline id="Path-80" points="70.246098 191 104 146.955275 66 126"></polyline>
            <line x1="193" y1="259" x2="213" y2="247" id="Path-81"></line>
            <polyline id="Path-72" points="265 152 265 219.276659 213 247"></polyline>
            <line x1="63" y1="39.7875872" x2="101" y2="43" id="Path-4"></line>
        </g>
    </g>
</svg>